# xmcd
#
# Track frame offsets:
# 150
# 15462
# 25152
# 44380
# 63395
# 80185
# 102142
# 123222
# 140697
# 165552
# 181787
# 194450
# 214092
# 224985
# 242209
# 259147
#
# Disc length: 3698 seconds
#
#
# Revision: 0
# Processed by: cddbd v1.5.1PL0 Copyright (c) Steve Scherf et al.
# Submitted via: FreeRIP 2.80 
#
DISCID=eb0e7010
DTITLE=Farrell and Black - Cataract Jump
DYEAR=1995
DGENRE=Blues
TTITLE0=Hypnotized
TTITLE1=Two Steps To The Rear
TTITLE2=Bobby Sox Baby
TTITLE3=Big Boss Man
TTITLE4=Grateful To Be Alive
TTITLE5=You Know It Ain't Right
TTITLE6=Can't Get Over Losin' You
TTITLE7=Dollar For Dollar, Pound For Pound
TTITLE8=Texas Tornado
TTITLE9=Wild About You Baby
TTITLE10=Sho Nuff N'Yes I Do
TTITLE11=Last Night (I Lost The Best Friend I Ever Had)
TTITLE12=Sweet Thing
TTITLE13=I'll Get Over It In Time
TTITLE14=Road Ladies
TTITLE15=Cataract Jump
EXTD=
EXTT0=
EXTT1=
EXTT2=
EXTT3=
EXTT4=
EXTT5=
EXTT6=
EXTT7=
EXTT8=
EXTT9=
EXTT10=
EXTT11=
EXTT12=
EXTT13=
EXTT14=
EXTT15=
PLAYORDER=
